HIERARCHY
ROOT Hips
{
	OFFSET 0.00 0.00 0.00
	CHANNELS 6 Xposition Yposition Zposition Xrotation Yrotation Zrotation
	JOINT Spine
	{
		OFFSET 0.00000 0.84964 1.27446
		CHANNELS 3 Xrotation Yrotation Zrotation
		JOINT Spine1
		{
			OFFSET 0.00000 0.29508 1.67346
			CHANNELS 3 Xrotation Yrotation Zrotation
			JOINT Spine2
			{
				OFFSET 0.00000 0.14810 1.69281
				CHANNELS 3 Xrotation Yrotation Zrotation
				JOINT Spine3
				{
					OFFSET 0.00000 0.00000 1.69928
					CHANNELS 3 Xrotation Yrotation Zrotation
					JOINT Neck
					{
						OFFSET 0.00000 -0.63723 4.46061
						CHANNELS 3 Xrotation Yrotation Zrotation
						JOINT Head
						{
							OFFSET 0.00000 -0.40573 2.30101
							CHANNELS 3 Xrotation Yrotation Zrotation
							End Site
							{
								OFFSET 0.00000 0.00000 2.75071
							}
						}
					}
					JOINT RightShoulder
					{
						OFFSET -0.72014 -1.20022 3.88874
						CHANNELS 3 Xrotation Yrotation Zrotation
						JOINT RightArm
						{
							OFFSET -3.57668 0.00000 0.00000
							CHANNELS 3 Xrotation Yrotation Zrotation
							JOINT RightForeArm
							{
								OFFSET -5.92485 0.00000 0.00000
								CHANNELS 3 Xrotation Yrotation Zrotation
								JOINT RightHand
								{
									OFFSET -6.63013 0.00000 0.00000
									CHANNELS 3 Xrotation Yrotation Zrotation
									JOINT RightHandEnd
									{
										OFFSET -1.65321 0.00000 0.00000
										CHANNELS 3 Xrotation Yrotation Zrotation
										End Site
										{
											OFFSET -1.65321 0.00000 0.00000
										}
									}
									JOINT RightHandThumb1
									{
										OFFSET -0.66129 -1.10214 -0.44086
										CHANNELS 3 Yrotation Xrotation Zrotation
										End Site
										{
											OFFSET -1.59688 -0.42788 0.00000
										}
									}
								}
							}
						}
					}
					JOINT LeftShoulder
					{
						OFFSET 0.72014 -1.20022 3.88874
						CHANNELS 3 Xrotation Yrotation Zrotation
						JOINT LeftArm
						{
							OFFSET 3.57668 0.00000 0.00000
							CHANNELS 3 Xrotation Yrotation Zrotation
							JOINT LeftForeArm
							{
								OFFSET 5.92485 0.00000 0.00000
								CHANNELS 3 Xrotation Yrotation Zrotation
								JOINT LeftHand
								{
									OFFSET 6.63013 0.00000 0.00000
									CHANNELS 3 Xrotation Yrotation Zrotation
									JOINT LeftHandEnd
									{
										OFFSET 1.65321 0.00000 0.00000
										CHANNELS 3 Xrotation Yrotation Zrotation
										End Site
										{
											OFFSET 1.65321 0.00000 0.00000
										}
									}
									JOINT LeftHandThumb1
									{
										OFFSET 0.66129 -1.10214 -0.44086
										CHANNELS 3 Yrotation Xrotation Zrotation
										End Site
										{
											OFFSET 1.59688 -0.42788 0.00000
										}
									}
								}
							}
						}
					}
				}
			}
		}
	}
	JOINT RightUpLeg
	{
		OFFSET -2.13640 0.00000 -0.62412
		CHANNELS 3 Xrotation Yrotation Zrotation
		JOINT RightLeg
		{
			OFFSET 0.00000 0.00000 -11.49360
			CHANNELS 3 Xrotation Yrotation Zrotation
			JOINT RightFoot
			{
				OFFSET 0.00000 0.00000 -8.79036
				CHANNELS 3 Xrotation Yrotation Zrotation
				JOINT RightToeBase
				{
					OFFSET 0.00000 -3.94625 -1.43632
					CHANNELS 3 Xrotation Yrotation Zrotation
					End Site
					{
						OFFSET 0.00000 -1.72833 -0.00000
					}
				}
			}
		}
	}
	JOINT LeftUpLeg
	{
		OFFSET 2.13640 0.00000 -0.62412
		CHANNELS 3 Xrotation Yrotation Zrotation
		JOINT LeftLeg
		{
			OFFSET 0.00000 0.00000 -11.49360
			CHANNELS 3 Xrotation Yrotation Zrotation
			JOINT LeftFoot
			{
				OFFSET 0.00000 0.00000 -8.79036
				CHANNELS 3 Xrotation Yrotation Zrotation
				JOINT LeftToeBase
				{
					OFFSET 0.00000 -3.94625 -1.43632
					CHANNELS 3 Xrotation Yrotation Zrotation
					End Site
					{
						OFFSET 0.00000 -1.72833 -0.00000
					}
				}
			}
		}
	}
}
MOTION
Frames: 18
Frame Time: 0.008342
 -1.5244 116.0079 21.9438 12.5168 -0.5605 113.1257 3.5638 -3.0786 -1.8286 -0.1941 -0.6684 -0.8041 1.0648 -2.6271 -8.4309 0.5510 5.4170 -2.0148 -2.3612 18.9388 2.6409 -4.0016 -4.8704 -2.5287 9.3595 -20.8742 -5.2148 -7.1609 -34.9435 -13.3595 -0.0001 0.0001 105.5924 56.3304 45.0310 -41.4891 0.0000 -0.0000 0.0000 -0.0000 0.0000 -0.0000 2.9330 8.4937 -6.0773 -8.7884 61.4360 -0.7625 -0.0001 -0.0001 -83.7544 1.1815 -29.0028 1.8566 0.0000 -0.0000 0.0000 -0.0000 -0.0000 -0.0000 -21.8834 6.5997 -29.5739 50.7656 0.0000 0.0000 -17.8353 26.4641 16.7497 -0.3794 0.0000 -0.0000 4.4293 -1.7941 7.0697 56.7263 0.0000 0.0000 -3.4043 -0.0760 -19.7959 3.7069 0.0000 0.0000
 -1.2416 116.2986 21.9497 12.1225 -0.5163 113.2997 3.5128 -3.3192 -1.7605 -0.1914 -0.7544 -0.8170 1.1666 -2.9154 -8.1733 0.5083 5.2213 -1.8818 -2.5407 18.9921 2.4134 -4.3463 -4.6709 -3.3230 8.5895 -21.4135 -5.0615 -7.1000 -33.4839 -13.3408 -0.0001 0.0001 105.6639 56.7579 45.1062 -42.3089 -0.0000 0.0000 -0.0000 0.0000 -0.0000 0.0000 3.0502 8.7386 -6.3146 -8.0594 60.8193 -1.6471 -0.0001 -0.0001 -83.7321 1.1513 -28.9518 1.8225 -0.0000 0.0000 -0.0000 -0.0000 -0.0000 0.0000 -21.4402 6.7658 -28.6760 51.9974 0.0000 0.0000 -18.9970 25.0946 16.4703 -0.7891 0.0000 -0.0000 2.8862 -2.3510 6.5251 58.8851 0.0000 0.0000 -2.8266 -1.2205 -19.7582 5.3946 0.0000 0.0000
 -0.9667 116.5758 21.9537 11.6363 -0.5168 113.2898 3.5519 -3.6090 -1.6803 -0.1649 -0.8422 -0.8195 1.2343 -3.1893 -7.7388 0.4346 5.0102 -1.7254 -2.6860 19.0052 2.1563 -4.6748 -4.4955 -4.1799 7.7714 -21.9077 -4.8608 -7.0775 -32.1396 -13.3319 -0.0001 0.0001 105.6887 57.1421 45.1229 -43.0605 -0.0000 -0.0000 0.0000 0.0000 0.0000 0.0000 3.1461 9.0303 -6.4962 -7.3376 60.0892 -2.6312 -0.0001 -0.0001 -83.6465 1.2031 -28.9179 1.7997 -0.0000 0.0000 -0.0000 0.0000 -0.0000 0.0000 -20.9512 6.8229 -27.9532 53.0334 0.0000 0.0000 -20.1134 23.6507 16.4833 -1.3266 0.0000 -0.0000 1.2109 -2.9676 6.1352 61.0351 0.0000 0.0000 -2.5024 -2.0786 -19.0091 6.8730 0.0000 0.0000
 -0.6979 116.8409 21.9575 11.0962 -0.5565 113.0869 3.6810 -3.9169 -1.5849 -0.1185 -0.9293 -0.8116 1.2639 -3.4444 -7.1455 0.3403 4.7947 -1.5512 -2.7966 18.9759 1.8809 -4.9795 -4.3314 -5.0837 6.9465 -22.3235 -4.6207 -7.0714 -30.9864 -13.2756 -0.0001 0.0001 105.6556 57.5146 45.1154 -43.7328 0.0000 -0.0000 0.0000 0.0000 -0.0000 0.0000 3.2107 9.3315 -6.6021 -6.6836 59.3207 -3.6215 -0.0001 -0.0001 -83.5087 1.3323 -28.9200 1.7925 0.0000 -0.0000 -0.0000 0.0000 -0.0000 -0.0000 -20.4152 6.7820 -27.3675 53.8536 0.0000 0.0000 -21.1485 22.2829 16.6961 -1.9206 0.0000 -0.0000 -0.5338 -3.6104 5.9035 63.0793 0.0000 0.0000 -2.4135 -2.5946 -17.5588 8.1667 0.0000 0.0000
 -0.4339 117.0950 21.9624 10.5000 -0.6026 112.7056 3.8473 -4.2477 -1.4821 -0.0520 -1.0043 -0.7778 1.2605 -3.6778 -6.4389 0.2313 4.5860 -1.3628 -2.8659 18.9171 1.5909 -5.2653 -4.1892 -6.0136 6.1594 -22.6419 -4.3463 -7.0650 -30.0823 -13.1232 -0.0001 0.0001 105.5604 57.9277 45.1276 -44.3247 -0.0000 -0.0000 0.0000 0.0000 -0.0000 0.0000 3.2380 9.6110 -6.6244 -6.1528 58.5769 -4.5247 -0.0001 -0.0001 -83.3358 1.5212 -28.9613 1.7953 -0.0000 0.0000 -0.0000 -0.0000 -0.0000 0.0000 -19.8693 6.6308 -26.8871 54.4503 0.0000 0.0000 -22.0673 21.1141 17.0042 -2.4936 0.0000 -0.0000 -2.3398 -4.2807 5.8181 64.9455 0.0000 0.0000 -2.5679 -2.7577 -15.4627 9.2857 0.0000 0.0000
 -0.1718 117.3404 21.9708 9.9354 -0.7161 112.1669 4.1359 -4.5285 -1.3510 0.0257 -1.0991 -0.7795 1.2220 -3.8696 -5.6082 0.1202 4.3787 -1.1759 -2.8986 18.8415 1.2982 -5.5253 -4.0586 -6.9578 5.4454 -22.8447 -4.0462 -7.0412 -29.4596 -12.8407 -0.0001 0.0001 105.4274 58.4073 45.1698 -44.8453 -0.0000 0.0000 -0.0000 0.0000 -0.0000 0.0000 3.2235 9.8366 -6.5613 -5.7835 57.9304 -5.2685 -0.0001 -0.0001 -83.1454 1.7534 -29.0481 1.8088 0.0000 -0.0000 0.0000 -0.0000 -0.0000 0.0000 -19.2211 6.4126 -26.4608 54.8398 0.0000 0.0000 -22.8690 20.2233 17.3272 -2.9763 0.0000 -0.0000 -4.0582 -4.9220 5.8650 66.5250 0.0000 0.0000 -2.9681 -2.6028 -12.8058 10.1917 0.0000 0.0000
 0.0889 117.5779 21.9838 9.3742 -0.8434 111.5163 4.4522 -4.8024 -1.2259 0.1120 -1.1586 -0.7381 1.1732 -4.0461 -4.7636 0.0067 4.1826 -0.9896 -2.8965 18.7673 1.0079 -5.7662 -3.9515 -7.9010 4.8338 -22.9310 -3.7254 -6.9837 -29.1374 -12.4024 -0.0001 0.0001 105.2722 58.9896 45.2738 -45.3023 -0.0000 0.0000 -0.0000 0.0000 -0.0000 -0.0000 3.1772 9.9835 -6.4217 -5.6114 57.4260 -5.7927 -0.0001 -0.0001 -82.9611 2.0081 -29.1726 1.8397 -0.0000 -0.0000 -0.0000 -0.0000 0.0000 -0.0000 -18.5314 6.1125 -26.0594 55.0353 0.0000 0.0000 -23.5365 19.6446 17.5826 -3.3239 0.0000 -0.0000 -5.7316 -5.5469 6.0087 67.7740 0.0000 0.0000 -3.6366 -2.2060 -9.7215 10.7556 0.0000 0.0000
 0.3494 117.8094 22.0031 8.8678 -0.9884 110.7991 4.8078 -5.0066 -1.0926 0.1988 -1.2041 -0.7061 1.1144 -4.2056 -3.9261 -0.0932 3.9849 -0.8065 -2.8672 18.7093 0.7291 -5.9931 -3.8460 -8.8354 4.3304 -22.8839 -3.3894 -6.8709 -29.1224 -11.8111 -0.0001 0.0001 105.1229 59.6823 45.4698 -45.6754 0.0000 0.0000 -0.0000 0.0000 0.0000 0.0000 3.0991 10.0567 -6.2098 -5.6310 57.0825 -6.0852 -0.0001 -0.0001 -82.7936 2.2493 -29.3377 1.8669 -0.0000 -0.0000 0.0000 -0.0000 -0.0000 0.0000 -17.7787 5.7772 -25.6331 55.0688 0.0000 0.0000 -24.0736 19.3623 17.7154 -3.5173 0.0000 -0.0000 -7.3121 -6.1031 6.2156 68.6262 0.0000 0.0000 -4.5541 -1.6701 -6.3711 10.7271 0.0000 0.0000
 0.6106 118.0358 22.0298 8.4213 -1.1529 110.0659 5.1880 -5.1467 -0.9619 0.2812 -1.2445 -0.6693 1.0561 -4.3422 -3.1457 -0.1755 3.7975 -0.6346 -2.8246 18.6841 0.4622 -6.1979 -3.7599 -9.7523 3.9534 -22.7331 -3.0384 -6.6987 -29.3750 -11.0740 -0.0001 0.0001 105.0168 60.4787 45.7348 -45.9908 -0.0000 -0.0000 -0.0000 -0.0000 0.0000 -0.0000 2.9932 10.0305 -5.9650 -5.8897 56.9307 -6.0579 -0.0000 -0.0001 -82.6782 2.4764 -29.5067 1.9110 0.0000 0.0000 -0.0000 0.0000 0.0000 0.0000 -16.9554 5.4144 -25.1491 54.9583 0.0000 0.0000 -24.4695 19.3184 17.6864 -3.5669 0.0000 -0.0000 -8.7888 -6.5857 6.4466 69.0490 0.0000 0.0000 -5.6749 -1.1003 -2.9541 9.7145 0.0000 0.0000
 0.8714 118.2592 22.0649 8.0773 -1.2602 109.3530 5.5137 -5.1756 -0.8335 0.3563 -1.2629 -0.6292 1.0162 -4.4591 -2.4620 -0.2394 3.6089 -0.4762 -2.7742 18.7032 0.2171 -6.3903 -3.6768 -10.6554 3.6951 -22.4873 -2.6764 -6.4502 -29.8605 -10.2143 -0.0001 0.0001 104.9789 61.3464 46.0780 -46.2207 0.0000 -0.0000 -0.0000 0.0000 -0.0000 -0.0000 2.8807 9.9406 -5.6968 -6.3627 56.9286 -5.7516 -0.0000 -0.0001 -82.6176 2.6567 -29.6789 1.9582 0.0000 0.0000 -0.0000 -0.0000 -0.0000 -0.0000 -16.1393 5.1057 -24.5485 54.7577 0.0000 0.0000 -24.7272 19.4246 17.4784 -3.5017 0.0000 -0.0000 -10.2200 -6.9136 6.6740 69.0126 0.0000 0.0000 -6.8973 -0.5696 0.3339 7.2209 0.0000 0.0000
 1.1333 118.4797 22.1091 7.8157 -1.3640 108.7100 5.8249 -5.1339 -0.7109 0.4204 -1.2663 -0.5995 0.9876 -4.5642 -1.8922 -0.2763 3.4267 -0.3367 -2.7277 18.7765 -0.0094 -6.5672 -3.6009 -11.5395 3.5526 -22.1637 -2.3042 -6.1216 -30.5343 -9.2616 -0.0001 0.0001 105.0448 62.2365 46.4464 -46.3821 -0.0000 -0.0000 -0.0000 -0.0000 -0.0000 0.0000 2.7702 9.7892 -5.4271 -7.0418 57.0688 -5.1712 -0.0000 -0.0001 -82.6177 2.7854 -29.8337 2.0048 0.0000 -0.0000 -0.0000 -0.0000 0.0000 -0.0000 -15.2708 4.8236 -23.8356 54.4584 0.0000 0.0000 -24.8257 19.5803 17.0916 -3.3693 0.0000 -0.0000 -11.5695 -7.1290 6.8524 68.5233 0.0000 0.0000 -8.1144 -0.0971 3.2767 2.6988 0.0000 0.0000
 1.3963 118.6983 22.1631 7.6357 -1.4454 108.1675 6.0868 -5.0403 -0.6080 0.4693 -1.2437 -0.5724 0.9913 -4.6665 -1.4360 -0.2899 3.2741 -0.2295 -2.6890 18.8882 -0.2201 -6.7308 -3.5199 -12.4068 3.5003 -21.7922 -1.9329 -5.6969 -31.3512 -8.2467 -0.0001 0.0001 105.2217 63.1080 46.8218 -46.4636 -0.0000 0.0000 -0.0000 -0.0000 -0.0000 0.0000 2.6684 9.6053 -5.1798 -7.8944 57.2894 -4.3504 -0.0001 -0.0001 -82.6867 2.8598 -29.9556 2.0607 0.0000 -0.0000 0.0000 -0.0000 0.0000 -0.0000 -14.3687 4.5902 -23.0048 54.0732 0.0000 0.0000 -24.7608 19.6888 16.5490 -3.2286 0.0000 -0.0000 -12.8627 -7.2223 6.9524 67.5888 0.0000 0.0000 -9.2019 0.3547 5.7004 -4.1489 0.0000 -0.0000
 1.6606 118.9161 22.2270 7.5667 -1.5016 107.7351 6.3094 -4.8640 -0.5152 0.5021 -1.2123 -0.5529 1.0180 -4.7465 -1.1028 -0.2764 3.1381 -0.1489 -2.6613 19.0419 -0.4197 -6.8821 -3.4376 -13.2553 3.5189 -21.3985 -1.5647 -5.1731 -32.2479 -7.2058 -0.0001 0.0001 105.5160 63.8932 47.2044 -46.4461 -0.0000 0.0000 -0.0000 -0.0000 0.0000 0.0000 2.5800 9.4049 -4.9600 -8.8659 57.5700 -3.3602 -0.0001 -0.0001 -82.8080 2.8823 -30.0406 2.1091 0.0000 0.0000 -0.0000 -0.0000 -0.0000 0.0000 -13.4348 4.4534 -22.0494 53.6279 0.0000 0.0000 -24.5462 19.6716 15.8910 -3.1518 0.0000 -0.0000 -14.0888 -7.1645 6.9770 66.2122 0.0000 0.0000 -10.0393 0.8621 7.4741 -13.1411 0.0000 -0.0000
 1.9264 119.1330 22.3002 7.5598 -1.5239 107.4317 6.4649 -4.6673 -0.4459 0.5174 -1.1734 -0.5179 1.0729 -4.7971 -0.9052 -0.2412 3.0352 -0.0879 -2.6406 19.2173 -0.6178 -7.0200 -3.3478 -14.0889 3.5917 -20.9933 -1.2173 -4.5506 -33.2135 -6.1596 -0.0001 0.0001 105.9155 64.5851 47.5338 -46.3707 -0.0000 -0.0000 0.0000 -0.0000 -0.0000 -0.0000 2.5250 9.2090 -4.7854 -9.9072 57.8614 -2.2806 -0.0001 -0.0001 -82.9690 2.8660 -30.0883 2.1575 0.0000 -0.0000 -0.0000 -0.0000 -0.0000 0.0000 -12.4881 4.3851 -21.0158 53.1168 0.0000 0.0000 -24.1819 19.4818 15.1621 -3.1810 0.0000 -0.0000 -15.2807 -7.0019 6.9023 64.4264 0.0000 0.0000 -10.5305 1.5055 8.5129 -23.4219 0.0000 -0.0000
 2.1941 119.3490 22.3821 7.6172 -1.4949 107.2374 6.5361 -4.4380 -0.3797 0.5237 -1.1296 -0.5061 1.1506 -4.8247 -0.7785 -0.1835 2.9739 -0.0596 -2.6224 19.3998 -0.8192 -7.1450 -3.2497 -14.9083 3.7013 -20.6376 -0.8967 -3.8373 -34.1500 -5.1336 -0.0001 0.0001 106.4121 65.1335 47.7991 -46.2474 0.0000 0.0000 0.0000 -0.0000 0.0000 -0.0000 2.4901 9.0492 -4.6504 -10.9141 58.1202 -1.2204 -0.0001 -0.0001 -83.1569 2.8171 -30.1034 2.2027 -0.0000 -0.0000 0.0000 -0.0000 -0.0000 0.0000 -11.5552 4.4030 -19.9182 52.5566 0.0000 0.0000 -23.6838 19.1116 14.4075 -3.3970 0.0000 -0.0000 -16.4349 -6.7369 6.7622 62.2295 0.0000 0.0000 -10.5690 2.3449 8.7796 -33.7796 0.0000 -0.0000
 2.4645 119.5652 22.4720 7.7709 -1.4337 107.1339 6.5539 -4.1439 -0.3178 0.5174 -1.1069 -0.5048 1.2544 -4.8012 -0.7148 -0.1093 2.9534 -0.0562 -2.5974 19.5701 -1.0327 -7.2573 -3.1482 -15.7103 3.8362 -20.3414 -0.6095 -3.0495 -35.0477 -4.1486 -0.0001 0.0001 106.9699 65.5467 48.0064 -46.0940 0.0000 0.0000 0.0000 0.0000 -0.0000 -0.0000 2.4744 8.9229 -4.5514 -11.8151 58.3445 -0.2679 -0.0001 -0.0001 -83.3519 2.7494 -30.0880 2.2392 -0.0000 0.0000 -0.0000 0.0000 -0.0000 0.0000 -10.6173 4.5506 -18.7942 51.9718 0.0000 0.0000 -23.0750 18.5872 13.6788 -3.8300 0.0000 -0.0000 -17.4888 -6.3446 6.5875 59.5969 0.0000 0.0000 -10.0383 3.4088 8.2976 -43.2129 0.0000 -0.0000
 2.7389 119.7809 22.5681 7.9599 -1.3720 107.1122 6.5356 -3.8625 -0.2824 0.4968 -1.0634 -0.4785 1.3740 -4.7668 -0.7051 -0.0159 2.9823 -0.0697 -2.5584 19.7109 -1.2657 -7.3535 -3.0405 -16.4976 3.9855 -20.1137 -0.3766 -2.2008 -35.8782 -3.2121 -0.0001 0.0001 107.5594 65.8316 48.1532 -45.9369 0.0000 -0.0000 0.0000 -0.0000 0.0000 0.0000 2.4706 8.8365 -4.4833 -12.5424 58.5403 0.4967 -0.0001 -0.0001 -83.5347 2.6966 -30.0448 2.2650 0.0000 0.0000 -0.0000 0.0000 0.0000 -0.0000 -9.6604 4.7653 -17.7146 51.3562 0.0000 0.0000 -22.3419 17.9673 13.0011 -4.4744 0.0000 -0.0000 -18.4086 -5.8985 6.3691 56.5358 0.0000 0.0000 -8.8455 4.6968 7.1159 -51.3235 0.0000 -0.0000
 3.0169 119.9960 22.6677 8.1615 -1.2677 107.1382 6.4316 -3.5888 -0.2530 0.4686 -1.0348 -0.4648 1.5113 -4.6842 -0.6978 0.0909 3.0606 -0.1047 -2.4946 19.8042 -1.5257 -7.4410 -2.9439 -17.2530 4.1400 -19.9657 -0.2035 -1.3051 -36.6425 -2.3202 -0.0001 0.0001 108.1364 66.0064 48.2682 -45.7820 0.0000 -0.0000 0.0000 -0.0000 0.0000 -0.0000 2.4778 8.7644 -4.4309 -13.0274 58.7197 1.0019 -0.0001 -0.0001 -83.6982 2.6370 -30.0016 2.2698 -0.0000 0.0000 0.0000 -0.0000 -0.0000 0.0000 -8.7650 5.0410 -16.7006 50.7594 0.0000 0.0000 -21.4790 17.3345 12.3750 -5.3169 0.0000 -0.0000 -19.2075 -5.4101 6.1255 53.0334 0.0000 0.0000 -6.8972 6.1516 5.3311 -58.0584 0.0000 -0.0000
